<?xml version="1.0" standalone="no"?>
<!DOCTYPE svg PUBLIC "-//W3C//DTD SVG 20010904//EN"
 "http://www.w3.org/TR/2001/REC-SVG-20010904/DTD/svg10.dtd">
<svg version="1.0" xmlns="http://www.w3.org/2000/svg"
 width="225.000000pt" height="225.000000pt" viewBox="0 0 225.000000 225.000000"
 preserveAspectRatio="xMidYMid meet">

<g transform="translate(0.000000,225.000000) scale(0.100000,-0.100000)"
fill="#96255E" stroke="none">
<path d="M1040 2243 c-545 -43 -977 -470 -1030 -1017 -55 -569 331 -1083 902
-1202 109 -22 304 -23 419 -1 460 90 806 436 896 896 19 102 21 306 4 401 -43
228 -150 431 -315 596 -143 142 -309 239 -498 289 -85 23 -261 47 -313 43 -11
-1 -40 -3 -65 -5z m532 -730 c43 -15 48 -15 72 1 26 16 26 16 26 -13 0 -23 -6
-31 -31 -42 -27 -11 -39 -10 -79 4 -59 21 -74 21 -90 2 -18 -22 -30 -18 -30 9
0 28 33 56 65 56 11 0 41 -7 67 -17z m-382 -8 c10 -12 10 -21 1 -41 -15 -34
-64 -31 -69 4 -7 44 41 70 68 37z m-614 -11 c-3 -8 0 -21 7 -29 11 -10 16 -10
32 1 10 8 27 12 37 8 13 -4 16 -1 12 10 -4 11 -1 16 10 16 13 0 16 -11 16 -53
l0 -54 -32 0 c-18 0 -41 7 -50 15 -10 9 -18 10 -18 4 0 -17 -39 -25 -55 -12
-8 7 -15 22 -15 33 0 20 0 20 -14 1 -13 -16 -13 -20 0 -27 21 -12 17 -26 -11
-39 -32 -14 -55 4 -51 40 2 15 1 19 -1 10 -6 -23 -40 -33 -59 -17 -8 7 -14 24
-12 38 3 24 7 26 49 27 25 0 50 3 55 6 5 3 18 2 29 -2 14 -5 26 -1 42 16 25
28 38 31 29 8z m-263 -16 l16 -23 0 23 c1 13 7 22 16 22 12 0 15 -13 15 -55 0
-30 -4 -55 -9 -55 -13 0 -41 29 -42 43 -1 7 -4 1 -8 -12 -13 -49 -31 -36 -31
23 0 62 15 74 43 34z m611 -100 l29 -123 19 60 c10 33 24 88 31 123 l12 62 43
0 c38 0 43 -2 37 -17 -17 -46 -83 -252 -90 -281 -7 -32 -8 -33 -53 -30 l-46 3
-27 95 c-15 53 -39 126 -53 163 l-25 67 47 0 48 0 28 -122z m-151 71 c8 -28
-1 -47 -24 -54 -25 -8 -49 11 -49 40 0 28 8 35 41 35 19 0 28 -6 32 -21z m421
-151 l-2 -123 -36 -3 -36 -3 0 120 c0 128 -1 127 55 130 19 1 20 -5 19 -121z
m194 90 c3 -26 2 -27 -32 -21 -28 4 -37 2 -42 -12 -5 -12 -1 -21 12 -28 32
-18 74 -64 74 -82 0 -9 -13 -30 -29 -46 -25 -24 -37 -29 -80 -29 -37 0 -51 4
-51 14 0 8 -3 22 -6 30 -5 14 -1 16 34 10 59 -9 64 11 13 55 -33 29 -41 43
-41 69 0 43 47 74 105 70 35 -3 40 -6 43 -30z m248 -19 l33 -32 41 36 c34 31
47 37 86 37 47 0 104 -23 104 -41 0 -7 11 -4 26 6 40 26 84 36 105 24 23 -12
25 -57 5 -84 -14 -19 -15 -19 -35 -1 -19 17 -24 18 -46 6 -19 -10 -25 -21 -25
-48 0 -27 -9 -43 -39 -73 -33 -33 -45 -39 -80 -39 -48 0 -74 11 -114 48 l-27
26 -34 -33 c-68 -66 -178 -47 -212 36 -41 96 50 199 150 171 16 -4 44 -22 62
-39z m-1021 -29 c0 -8 -8 -16 -17 -18 -13 -2 -18 3 -18 18 0 15 5 20 18 18 9
-2 17 -10 17 -18z m165 -59 l0 -79 -72 1 c-72 2 -73 2 -76 30 -3 24 1 28 30
34 l33 7 -30 6 c-16 3 -29 9 -28 15 3 15 36 23 61 14 17 -6 22 -16 22 -43 0
-19 5 -38 10 -41 6 -4 10 20 10 64 0 64 2 71 20 71 18 0 20 -7 20 -79z m-430
54 c0 -10 -10 -15 -27 -15 l-28 0 30 -28 30 -29 27 29 c31 33 61 31 89 -4 16
-20 16 -20 21 -1 6 23 51 36 67 20 18 -18 13 -27 -15 -27 -21 0 -25 -4 -22
-22 2 -17 9 -23 26 -22 33 1 24 -30 -10 -34 -18 -2 -33 4 -44 17 l-18 20 -14
-20 c-20 -28 -72 -22 -88 10 -12 23 -12 23 -19 2 -11 -36 -85 -41 -85 -6 0 9
5 13 10 10 6 -4 18 -4 27 0 15 5 13 9 -10 29 -28 25 -37 70 -14 79 28 12 67 7
67 -8z m266 -80 c0 -47 -2 -55 -18 -55 -15 0 -18 8 -18 55 0 46 3 55 18 55 14
0 17 -10 18 -55z m-126 -284 c0 -98 3 -193 6 -210 6 -30 5 -31 -29 -31 -22 0
-37 6 -41 15 -5 13 -10 12 -38 -5 -98 -59 -201 30 -182 158 13 86 86 136 166
114 l35 -10 -5 68 -5 69 34 4 c19 2 40 5 47 5 9 2 12 -40 12 -177z m650 134
c62 -32 76 -85 34 -134 l-25 -30 31 -28 c25 -22 32 -37 32 -65 0 -82 -61 -118
-200 -118 l-87 0 0 195 0 195 93 0 c63 0 102 -5 122 -15z m-386 -100 c67 -32
93 -129 54 -205 -30 -58 -75 -83 -141 -77 -83 7 -132 61 -131 147 0 59 27 114
67 134 41 20 110 20 151 1z m704 -1 c30 -21 50 -62 54 -110 l3 -39 -92 -3
c-51 -1 -93 -7 -93 -12 0 -6 10 -20 21 -31 19 -19 29 -21 85 -16 58 6 64 5 64
-13 0 -42 -65 -69 -137 -55 -52 9 -77 27 -97 68 -33 70 -9 173 48 208 38 23
113 25 144 3z m177 0 c11 -15 14 -15 43 0 42 22 95 21 116 -3 16 -18 18 -18
54 0 47 25 94 24 116 0 19 -21 22 -43 30 -183 l5 -88 -44 0 -44 0 -3 101 c-3
112 -12 128 -61 115 l-27 -6 0 -105 0 -105 -43 0 -43 0 4 89 c5 95 -6 131 -38
131 -47 0 -50 -6 -50 -116 l0 -104 -43 0 -43 0 2 143 c2 78 3 143 3 145 3 10
56 -1 66 -14z"/>
<path d="M550 1435 c0 -8 5 -15 10 -15 6 0 10 7 10 15 0 8 -4 15 -10 15 -5 0
-10 -7 -10 -15z"/>
<path d="M630 1435 c0 -8 7 -15 15 -15 8 0 15 7 15 15 0 8 -7 15 -15 15 -8 0
-15 -7 -15 -15z"/>
<path d="M727 1444 c-8 -8 1 -24 14 -24 5 0 9 7 9 15 0 15 -12 20 -23 9z"/>
<path d="M1493 1314 c-15 -24 -15 -29 -2 -53 21 -38 63 -40 100 -5 l29 28 -27
28 c-35 37 -76 38 -100 2z"/>
<path d="M1746 1311 l-27 -28 31 -27 c51 -42 110 -27 110 29 0 58 -68 74 -114
26z"/>
<path d="M665 1240 c-3 -5 1 -10 9 -10 9 0 16 5 16 10 0 6 -4 10 -9 10 -6 0
-13 -4 -16 -10z"/>
<path d="M403 1264 c-7 -18 11 -39 26 -30 17 11 13 46 -4 46 -9 0 -18 -7 -22
-16z"/>
<path d="M325 948 c-29 -16 -35 -28 -35 -73 0 -56 23 -87 63 -83 39 4 57 35
57 99 0 39 -4 47 -25 57 -31 14 -35 14 -60 0z"/>
<path d="M1027 1053 c-4 -3 -7 -26 -7 -50 l0 -45 33 7 c42 9 57 22 57 50 0 17
-9 26 -31 34 -37 13 -43 13 -52 4z"/>
<path d="M1027 903 c-4 -3 -7 -31 -7 -61 l0 -54 38 7 c49 9 62 21 62 57 0 24
-6 32 -35 44 -38 16 -49 17 -58 7z"/>
<path d="M640 940 c-14 -14 -20 -33 -20 -63 0 -55 22 -87 60 -87 38 0 60 32
60 87 0 48 -26 83 -60 83 -11 0 -29 -9 -40 -20z"/>
<path d="M1345 938 c-14 -20 -14 -23 0 -28 9 -3 33 -4 55 -2 37 4 38 5 28 28
-15 32 -61 33 -83 2z"/>
</g>
</svg>
